<?xml version="1.0" encoding="UTF-8" standalone="no"?>
<svg width="139px" height="60px" viewBox="0 0 139 60" version="1.1" xmlns="http://www.w3.org/2000/svg" xmlns:xlink="http://www.w3.org/1999/xlink">
    <!-- Generator: Sketch 3.7.1 (28215) - http://www.bohemiancoding.com/sketch -->
    <title>avo</title>
    <desc>Created with Sketch.</desc>
    <defs></defs>
    <g id="Page-1" stroke="none" stroke-width="1" fill="none" fill-rule="evenodd">
        <g id="iPhone-6" transform="translate(-118.000000, -262.000000)" fill="#FFFFFF">
            <path d="M161.98025,305.230469 C161.98025,306.40235 161.931423,307.932282 161.833766,309.820312 C161.736109,311.708343 161.459419,313.547517 161.003688,315.337891 C160.547956,317.128264 159.831818,318.674473 158.85525,319.976562 C157.878683,321.278652 156.511509,321.929688 154.753688,321.929688 C152.344821,321.929688 150.489371,321.148445 149.187281,319.585938 C147.885192,318.02343 147.266708,316.070324 147.331813,313.726562 C145.248469,315.549488 142.888467,316.981766 140.251735,318.023438 C137.615003,319.065109 134.929483,319.585938 132.195094,319.585938 C130.307064,319.585938 128.516717,319.130213 126.824,318.21875 C125.131283,317.307287 123.633903,316.135424 122.331813,314.703125 C121.029723,313.270826 119.988067,311.659514 119.206813,309.869141 C118.425559,308.078767 118.034938,306.304696 118.034938,304.546875 C118.034938,301.421859 118.995215,298.687512 120.915797,296.34375 C122.83638,293.999988 125.196382,291.998055 127.995875,290.337891 C130.795368,288.677726 133.773854,287.35938 136.931422,286.382812 C140.08899,285.406245 142.904717,284.75521 145.378688,284.429688 C145.378688,284.104165 145.394964,283.811199 145.427516,283.550781 C145.460068,283.290363 145.476344,282.997397 145.476344,282.671875 C145.476344,280.653636 144.922964,279.026048 143.816188,277.789062 C142.709411,276.552077 141.146927,275.933594 139.128688,275.933594 C137.501075,275.933594 136.10135,276.210284 134.929469,276.763672 C133.757588,277.31706 132.650828,277.935543 131.609156,278.619141 C130.567485,279.302738 129.525828,279.921221 128.484156,280.474609 C127.442485,281.027998 126.270621,281.304688 124.968531,281.304688 C123.536233,281.304688 122.315542,280.848963 121.306422,279.9375 C120.297302,279.026037 119.79275,277.854174 119.79275,276.421875 C119.79275,274.273427 120.427509,272.320321 121.697047,270.5625 C122.966585,268.804679 124.561621,267.323574 126.482203,266.119141 C128.402786,264.914708 130.486098,263.970707 132.732203,263.287109 C134.978308,262.603512 137.045345,262.261719 138.933375,262.261719 C140.691196,262.261719 142.448991,262.473305 144.206813,262.896484 C145.964634,263.319664 147.624774,263.970699 149.187281,264.849609 C150.749789,265.72852 152.165791,266.802728 153.435328,268.072266 C154.704866,269.341803 155.730246,270.822908 156.5115,272.515625 C157.683381,274.924491 158.627382,277.479804 159.343531,280.181641 C160.059681,282.883477 160.613061,285.650376 161.003688,288.482422 C161.394315,291.314467 161.654729,294.14647 161.784938,296.978516 C161.915147,299.810561 161.98025,302.561185 161.98025,305.230469 L161.98025,305.230469 Z M146.35525,302.105469 L146.062281,295.464844 C145.932072,295.464844 145.801865,295.448568 145.671656,295.416016 C145.541447,295.383463 145.41124,295.367188 145.281031,295.367188 C144.434673,295.367188 143.376741,295.578774 142.107203,296.001953 C140.837666,296.425132 139.616975,297.011064 138.445094,297.759766 C137.273213,298.508467 136.280384,299.338537 135.466578,300.25 C134.652772,301.161463 134.245875,302.105464 134.245875,303.082031 C134.245875,303.993494 134.571393,304.611978 135.222438,304.9375 C135.873483,305.263022 136.622173,305.425781 137.468531,305.425781 C138.90083,305.425781 140.430763,305.051436 142.058375,304.302734 C143.685988,303.554033 145.118265,302.821618 146.35525,302.105469 L146.35525,302.105469 Z M209.929469,284.039062 C208.236752,288.531272 206.381302,293.218726 204.363063,298.101562 C202.344823,302.984399 200.163856,307.541646 197.820094,311.773438 C196.387795,314.377617 194.792759,316.542309 193.034938,318.267578 C191.277116,319.992847 189.258907,320.855469 186.98025,320.855469 C185.157324,320.855469 183.383254,319.927744 181.657985,318.072266 C179.932716,316.216788 178.337679,314.003268 176.872828,311.431641 C175.407977,308.860013 174.138459,306.255873 173.064235,303.619141 C171.99001,300.982409 171.192492,298.88282 170.671656,297.320312 C170.150821,295.562491 169.564889,293.674489 168.913844,291.65625 C168.262799,289.638011 167.676867,287.58725 167.156031,285.503906 C166.635196,283.420563 166.212023,281.353526 165.8865,279.302734 C165.560978,277.251943 165.398219,275.315113 165.398219,273.492188 C165.398219,270.953112 165.853944,268.8698 166.765406,267.242188 C167.676869,265.614575 169.467216,264.800781 172.1365,264.800781 C173.178172,264.800781 174.122173,265.110023 174.968531,265.728516 C175.81489,266.347008 176.596132,267.20963 177.312281,268.316406 C178.028431,269.423183 178.712018,270.708977 179.363063,272.173828 C180.014108,273.638679 180.632591,275.249991 181.218531,277.007812 C181.804472,278.700529 182.357852,280.458324 182.878688,282.28125 C183.399524,284.104176 183.920352,285.861971 184.441188,287.554688 C184.962024,289.247404 185.499128,290.891268 186.052516,292.486328 C186.605904,294.081388 187.338319,295.660148 188.249781,297.222656 C188.705513,296.050775 189.226341,294.716153 189.812281,293.21875 C190.398222,291.721347 191.032981,290.126311 191.716578,288.433594 C192.400175,286.740877 193.13259,284.999358 193.913844,283.208984 C194.695098,281.418611 195.541444,279.677092 196.452906,277.984375 C198.210728,274.468732 200.082454,271.473971 202.068141,269 C204.053828,266.526029 206.023209,265.289062 207.976344,265.289062 C209.79927,265.289062 211.10134,265.842442 211.882594,266.949219 C212.663848,268.055995 213.054469,269.488272 213.054469,271.246094 C213.054469,273.003915 212.761503,274.989572 212.175563,277.203125 C211.589622,279.416678 210.840932,281.695301 209.929469,284.039062 L209.929469,284.039062 Z M235.027125,321.832031 C231.706796,321.832031 228.80969,320.953134 226.335719,319.195312 C223.861748,317.437491 221.778436,315.19142 220.085719,312.457031 C218.393002,309.722643 217.123484,306.679053 216.277125,303.326172 C215.430767,299.973291 215.007594,296.669287 215.007594,293.414062 C215.007594,289.963524 215.430767,286.399107 216.277125,282.720703 C217.123484,279.042299 218.425554,275.689468 220.183375,272.662109 C221.941196,269.63475 224.187268,267.160817 226.921656,265.240234 C229.656045,263.319652 232.911221,262.359375 236.687281,262.359375 C240.333133,262.359375 243.441826,263.352204 246.013453,265.337891 C248.585081,267.323578 250.652117,269.797511 252.214625,272.759766 C253.777133,275.72202 254.883893,278.96092 255.534938,282.476562 C256.185983,285.992205 256.413845,289.312484 256.218531,292.4375 C256.023218,295.888038 255.486114,299.371076 254.607203,302.886719 C253.728293,306.402361 252.442498,309.559882 250.749781,312.359375 C249.057065,315.158868 246.908649,317.437491 244.304469,319.195312 C241.700289,320.953134 238.607872,321.832031 235.027125,321.832031 L235.027125,321.832031 Z M236.003688,277.691406 C235.02712,277.691406 234.164499,278.212234 233.415797,279.253906 C232.667095,280.295578 232.048612,281.565097 231.560328,283.0625 C231.072045,284.559903 230.697699,286.138664 230.437281,287.798828 C230.176863,289.458993 230.046656,290.907546 230.046656,292.144531 C230.046656,293.707039 230.193139,295.39973 230.48611,297.222656 C230.77908,299.045582 231.185977,300.721998 231.706813,302.251953 C232.227649,303.781909 232.862408,305.051427 233.61111,306.060547 C234.359811,307.069667 235.222433,307.574219 236.199,307.574219 C237.240672,307.574219 238.135845,307.085942 238.884547,306.109375 C239.633249,305.132808 240.235456,303.895841 240.691188,302.398438 C241.146919,300.901034 241.472437,299.25717 241.66775,297.466797 C241.863064,295.676423 241.960719,294.000008 241.960719,292.4375 C241.960719,291.005201 241.830512,289.426441 241.570094,287.701172 C241.309676,285.975903 240.935331,284.364591 240.447047,282.867188 C239.958763,281.369784 239.34028,280.132817 238.591578,279.15625 C237.842877,278.179683 236.980255,277.691406 236.003688,277.691406 L236.003688,277.691406 Z" id="avo"></path>
        </g>
    </g>
</svg>