<?xml version="1.0" encoding="UTF-8" standalone="no"?>
<svg width="180px" height="180px" viewBox="0 0 180 180" version="1.1" xmlns="http://www.w3.org/2000/svg" xmlns:xlink="http://www.w3.org/1999/xlink">
    <!-- Generator: Sketch 3.7.1 (28215) - http://www.bohemiancoding.com/sketch -->
    <title>180 - iPhone 6 Plus</title>
    <desc>Created with Sketch.</desc>
    <defs></defs>
    <g id="Page-1" stroke="none" stroke-width="1" fill="none" fill-rule="evenodd">
        <g id="180---iPhone-6-Plus">
            <rect id="Rectangle-26" fill="#688FE2" x="-10.8260073" y="-11.8260073" width="202.652015" height="202.652015" rx="10"></rect>
            <g id="Grandma" transform="translate(19.095767, 23.536089)">
                <path d="M71.4042333,132.422909 C102.577033,132.422909 127.84758,120.258081 127.84758,89.0852816 C127.84758,57.9124822 102.577033,21.7612902 71.4042333,21.7612902 C40.2314339,21.7612902 14.960887,57.9124822 14.960887,89.0852816 C14.960887,120.258081 40.2314339,132.422909 71.4042333,132.422909 Z" id="Oval-7" fill="#EBBE74"></path>
                <path d="M46.7750636,13.5865347 C39.5467466,9.9574136 30.3727349,6.77780678 26.6535373,16.85136 C25.9830795,18.6673141 27.9003545,21.1779082 26.6535373,22.658668 C25.3849623,24.1652679 22.5942251,22.8407593 20.8462293,23.7483034 C16.2010207,26.1600551 11.788476,29.0907585 7.78080663,32.4572248 C4.82735597,34.9381411 10.4775183,37.7610662 9.95803699,39.3541682 C8.41341535,44.0910851 3.98890559,47.4019291 1.79393328,51.8747732 C0.733083022,54.0365398 -0.651115591,56.7571594 0.341086028,58.951282 C1.01812962,60.4484743 4.23662268,58.195148 5.24036446,59.4960997 C14.8019787,71.8889265 15.1665173,91.2008922 15.1665173,91.2008922 C15.1665173,91.2008922 31.2648829,70.3467827 35.1828933,67.7989585 C51.2655482,57.3406458 42.7307671,65.4818669 44.2102785,65.7147688 C46.1996192,66.0279271 54.7117328,60.8567961 55.5633128,60.6160281 C57.6073193,60.0381242 61.9255523,57.4724406 64.013341,57.8636871 C67.7760499,58.5688094 71.6777639,59.62428 75.4463511,58.951282 C77.2142648,58.6355662 82.0326066,53.5546337 83.0676776,55.141639 C84.8213063,57.8303611 86.8719351,60.5253552 89.5993686,62.2181478 C91.8797731,63.6334899 106.657988,70.1308699 107.112047,70.1308699 C107.566106,70.1308699 104.312057,72.8834433 107.56611,75.1019645 C109.654304,76.5256357 112.13616,77.4998931 114.642619,77.8240126 C119.261974,78.4213584 123.253935,91.6541517 127.889646,91.2008922 C128.942627,91.0979364 130.660878,77.0044422 131.338119,76.1916 C136.838325,69.5901152 132.017899,65.2337354 133.634283,64.9401977 C135.726141,64.5603136 137.170417,64.117866 138.728017,62.2181479 C140.644871,59.8802688 133.267925,54.7388621 133.634283,49.5444745 C133.909534,45.6418443 136.55403,42.533724 136.530629,40.303113 C136.519311,39.2243402 136.450926,37.9991045 136.29565,36.7179618 C135.80801,32.6945666 134.463404,28.1197837 131.33812,25.7984121 C128.984753,24.0503983 122.575016,13.9035905 119.723503,13.2233229 C117.187364,12.618292 114.45308,13.2985572 111.920571,12.6785052 C111.285116,12.5229224 106.956497,9.08551887 104.844062,8.86682169 C101.589547,8.52988664 98.2011125,8.55452012 95.0434648,9.41163941 C93.2297143,9.90396807 94.9686468,13.9103692 90.5073982,7.98123783 C89.7205924,6.93554966 84.4496705,4.0611463 82.8860717,3.62677712 C81.1288537,3.13862034 79.2647248,3.14276325 77.4419755,3.0819594 C73.8145957,2.9609561 70.1048862,2.33216379 66.5537832,3.0819594 C64.4519939,3.5257405 62.575353,4.95999062 61.109687,6.5304311 C54.1754809,13.9603355 66.3422212,10.7523865 50.7887581,11.7929213 L46.7750636,13.5865347 Z" id="Path-21" fill="#9B9B9B"></path>
                <path d="M46.7518276,90.3915131 C46.7518276,90.3915131 50.0557755,72.6540555 61.7127145,86.2512808" id="Path-21" stroke="#000000" stroke-width="2" transform="translate(54.232271, 85.756680) rotate(7.000000) translate(-54.232271, -85.756680) "></path>
                <path d="M83.815806,88.3582056 C83.815806,88.3582056 87.1197539,70.620748 98.776693,84.2179733" id="Path-21" stroke="#000000" stroke-width="2" transform="translate(91.296250, 83.723372) rotate(13.000000) translate(-91.296250, -83.723372) "></path>
                <path d="M100.300169,104.912349 C100.300169,104.912349 77.6032847,131.513742 47.4424419,106.819417" id="Path-23" stroke="#000000" stroke-width="2"></path>
                <path d="M48.336441,100.699046 C48.336441,100.699046 49.9355417,109.963179 42.1530434,109.963179" id="Path-24" stroke="#000000" stroke-width="2"></path>
                <path d="M48.1333087,44.9329345 C51.7374994,37.5438361 56.1559464,30.4990235 58.9458806,22.7656392 C64.2307396,8.11660362 40.947563,13.1865509 28.5366638,21.6833673 C16.1257646,30.1801836 13.8314801,35.9326462 20.6622692,48.0477674 C30.2005052,64.9648297 57.9231274,47.6315718 51.000417,39.9215866 C36.8661152,24.1798828 5.99710282,43.8437047 9.28724048,62.4929574 C11.9798163,77.7550926 52.8856765,55.0007062 48.4724072,37.0321425 C44.4141959,20.5091923 1.5571992,64.6912292 47.2073871,53.4652213 C53.0890524,52.0188391 58.2860451,48.488453 63.4597487,45.3390405 C66.6400032,43.4031095 69.8580773,41.246222 72.128081,38.2951321 C73.62543,36.3485224 75.722158,33.2516494 74.2946564,31.2532543 C69.8556517,25.0389804 47.7627846,42.2175225 68.8772026,42.6303136 C75.3989288,42.7578146 82.0677625,42.6545774 88.3784121,41.0038591 C94.0041354,39.5323014 99.2342284,36.6212522 104.088622,33.4198298 C107.821046,30.9583349 111.066101,27.7168656 113.841258,24.2113765 C114.633952,23.2100702 115.378606,21.216166 114.381378,20.4183466 C97.2276808,6.69474546 65.973192,21.7015008 74.8368079,45.3390405 C79.620425,58.0960168 100.940337,48.8202948 103.367784,39.3794351 C108.312687,20.1476563 61.7486781,-4.16046311 55.3335679,21.5026496 C54.4128337,25.1859699 54.1868085,29.1315026 54.7914164,32.8797088 C59.3421413,61.0914741 103.363122,38.1082171 88.1997255,20.7797809 C85.5591949,17.7622336 82.2476676,15.0160284 78.4470902,13.7379031 C39.0353872,0.483839611 83.6814611,74.8815594 95.0608861,36.489991 C95.9859664,33.3689823 96.828181,29.7552597 95.6030376,26.7393863 C87.280075,6.25117075 56.6058478,23.9124094 82.9629887,40.4637381 C88.0918709,43.6844901 93.386369,46.9390648 99.2133198,48.5899189 C104.437168,50.0699059 110.239423,51.1436455 115.465681,49.6721914 C117.628555,49.0632339 117.570263,45.5870001 117.812974,43.3531822 C118.324727,38.6432121 115.876181,19.0024173 105.895794,23.8499422 C93.5484649,29.8471029 111.826557,73.8636311 128.828599,67.548977 C131.094552,66.7073893 130.991973,63.0980001 131.175892,60.6878163 C131.602066,55.102966 131.819658,49.3674036 130.63374,43.8933032 C115.593702,-25.530264 99.2683461,54.482624 122.688276,78.5646019 C123.469098,79.3674965 124.590795,76.9725819 124.676165,75.8558749 C126.299217,54.6252271 125.678578,49.9421792 116.730702,30.5303857 C116.323674,29.6473684 114.753735,28.8078655 114.021975,29.4481132 C103.230336,38.8901655 113.403329,71.6858513 121.967438,79.829622 C122.634628,80.4640647 124.524829,81.277904 124.676165,80.369743 C126.057093,72.0828817 127.945813,45.7248673 123.772579,35.5884357 C122.951307,33.5936333 121.572808,39.413879 121.24457,41.5460106 C119.995247,49.6612049 127.005613,63.9451683 119.077994,66.0829343 C108.968521,68.8090604 101.679007,54.3856279 92.5328763,49.2884212 C91.4875865,48.7058734 89.4547745,48.2067666 88.9428994,49.2884212 C85.6617502,56.2218903 95.5889842,69.1874112 103.39012,64.8199447 C131.830186,48.8977711 89.5096482,64.4639668 101.221514,55.6317967 C102.951968,54.3268241 105.949243,56.3659679 107.700935,55.0896453 C118.445787,47.2607032 109.254504,39.5211445 114.92353,28.183093 C116.145606,25.7389412 124.871736,29.1373792 123.049711,27.1008206 L124.134014,23.4885078 C105.101206,2.21469461 50.5603794,14.9584926 64.7227383,43.5318688 C73.3855915,61.0096751 104.432529,37.1823947 46.3261371,56.6937639 C40.1486612,58.7680798 90.5638247,55.1229362 71.4275482,47.6639973 C59.2564645,42.9199516 45.3014954,46.8043748 32.2423814,47.1218458 C30.3574923,47.167668 28.4682876,47.8240305 26.8249276,48.7483003 C25.4896318,49.4993064 24.215372,50.6058431 23.5740491,51.9971482 C20.6159,58.414646 17.1213455,64.8595895 16.170737,71.8618225 C11.1142797,109.107956 42.8663555,-0.115826039 15.0640982,83.2388818 C13.7765671,87.0990638 18.599835,75.8532693 21.0237035,72.5846912 C26.5737926,65.1004157 34.1414925,59.1061995 38.9004891,51.0955929 C40.4697897,48.4540591 40.1931946,44.8131014 39.2619234,41.8851091 C35.0771287,28.7277736 29.3649946,57.633129 39.0812063,49.2884212 C43.3609168,45.6128186 46.6723921,40.9025902 49.916114,36.286938 C51.4026379,34.1716898 54.7137455,31.3166739 53.1669924,29.2450602 C51.5472669,27.0757123 47.6244449,28.9100932 45.0631475,29.7872117 C40.6315301,31.3048229 36.5013632,38.885303 32.6038158,36.286938 C28.9841489,33.8738268 36.5901948,27.9342126 35.8526637,23.6468892 C35.5504484,21.8900891 32.0558315,23.6803091 30.6159269,24.7311922 C27.4167671,27.0660295 26.4502792,33.3831954 22.4897461,33.3995245 C20.6242006,33.407216 30.1981974,23.6468882 15.3544641,30.7557745 C11.301392,32.6968514 11.847929,34.437379 10.9340003,38.2951321 C10.1385682,41.652703 9.507743,50.9591536 12.0162727,48.5899189 L15.086434,50.7564944 C21.4721639,44.7253549 39.2781692,19.9639193 30.8839578,19.4944551 C22.4897465,19.0249908 33.438711,12.5505778 35.5569547,10.3509792 C36.0095566,9.88099436 40.3548709,10.9120047 43.4974418,12.3569125 C46.1472598,13.5752599 47.6560779,15.2503725 48.1333087,14.931974 C49.7732821,13.8378179 26.8104948,15.4570172 28.1844174,14.931974 C42.6133127,9.41798552 53.7452506,31.5257605 64.3836398,18.2294353 C65.1810786,17.2327614 64.9852617,15.009129 63.8435189,14.4384359 C57.8118176,11.4235274 45.2131933,24.959084 49.3962983,29.6064945 C58.3570657,39.561866 77.6477874,22.9548649 80.9974358,18.0487181 C83.9273633,13.757326 88.545989,7.69790484 85.8727381,3.24209382 C81.7421594,-3.64281123 64.7887362,3.38892086 61.3531437,6.73866647 C60.4999189,7.57057133 59.5793089,11.6041299 60.7246231,11.9332402 C90.4634802,20.4788095 71.1108471,6.48392637 100.659057,10.6230701 C104.032868,11.095677 106.768596,13.7890978 109.325359,16.040524 C112.368386,18.7201438 113.769619,23.2060261 117.270823,25.2510078 C120.94137,27.3948999 125.481933,28.0272472 129.732185,27.9597348 C130.760787,27.9433961 129.587949,24.6524831 128.647882,25.0702907 C127.535234,25.5648008 127.710502,27.5309436 128.10573,28.6826034 C129.871539,33.8280092 132.724416,29.5504494 133.775549,34.8879019 C134.866301,40.4265368 133.686577,41.9708663 133.289105,49.5138092 C133.216151,50.8982635 135.132262,62.5094416 134.968922,63.5325887 C133.948645,69.9234862 135.232105,81.0136327 128.828599,81.9515258 C121.512349,83.0231045 117.078856,60.9064388 112.620909,66.805803 L110.454334,66.4443687 C107.789307,69.9710955 116.832034,75.6603029 116.050474,76.1726376 C113.139833,78.0806449 103.188573,73.8957959 106.322205,72.3816382 L116.050474,74.0060622 C118.004267,73.0619976 117.953454,69.0334901 116.411908,67.5063358 C110.931609,62.0772002 103.702965,58.7020639 96.9106989,55.0449736 C94.8986767,53.9616611 90.5535493,51.1555999 90.2505607,53.4205496 C89.8488947,56.4231485 97.8969589,62.7979904 96.2101661,60.2817103 L100.001165,60.8685335 C95.2399689,53.7659989 84.3879653,47.9849331 77.2490775,44.6161718 C76.4869963,44.2565542 74.3423217,43.8634142 74.7210677,44.6161718 C84.8873066,64.8215717 55.5092088,50.9764523 42.758496,55.2703624 C37.0747061,57.1844266 36.0602664,65.3869728 31.5641844,69.3561486 C28.1930134,72.3322443 22.9940856,72.6742596 19.6449737,75.6751578 C18.0428728,77.1106851 16.599986,83.6878347 17.6591154,81.8154803 C24.1778676,70.2914735 31.996496,59.2195142 36.0780525,46.6243659 C36.8707676,44.1781509 30.7622647,46.9607417 28.5366643,48.2487899 C25.8843473,49.7837968 23.7308955,52.1968162 22.036938,54.7505468 C19.6409978,58.3625533 19.0720013,63.0441626 16.4387669,66.4870098 C15.6628485,67.5014916 13.8159162,67.5409262 12.645737,67.0291613 C10.6536992,66.1579656 9.03413111,64.4652667 7.77043462,62.6960104 C6.85227595,61.4105293 6.49870817,59.7524608 6.32672783,58.1821423 C6.01215855,55.3098726 5.66267961,52.3259137 6.32672783,49.51381 C6.73355008,47.7910039 7.68464654,44.731448 9.3968891,45.1806592 L14.0914743,57.2562207 C17.6863658,58.1993495 20.181585,44.3606097 20.4104835,48.0701033 C21.205065,60.9469708 9.06260089,75.5674277 15.8966154,86.5100655 C20.5488529,93.9592376 25.2941505,71.6142845 30.8839569,64.84025 C34.4352981,60.5365397 39.9958882,58.0579547 43.164602,53.4652213 C45.5322522,50.0335493 46.1979799,45.6457849 46.9556014,41.5460106 C47.2432993,39.9891688 47.4823744,37.8261011 46.2347632,36.8514254 C18.6428628,15.2957077 22.3649296,55.7928688 36.3014108,38.6565665 C39.8111922,34.3409379 43.3479393,29.9750242 46.0540461,25.1149623 C46.6984248,23.9576834 46.5760016,22.3586227 46.0540461,21.1412152 C44.3689607,17.2109272 35.7179066,20.4664882 30.8839578,22.1294621 C26.4660205,23.6493199 23.8648834,23.6489412 60.6799532,19.4944554 C62.900991,19.2438171 67.7489598,17.0490993 66.0974071,15.5430442 C61.5067723,11.3568328 46.8645833,19.4624978 45.1504602,21.6833667 C43.8353664,23.3872415 49.5005287,22.1228456 51.6075454,21.6833667 C62.5399795,19.4030935 73.450044,16.885552 84.1102382,13.5571859 C85.6905269,13.0637822 89.529562,10.6607015 87.9032681,10.3509791 C80.2143917,8.88665788 71.0932621,8.35119146 66.6172227,7.82296936 C65.1385648,7.64847139 69.461493,6.74930978 70.9503736,6.73866637 C77.939004,6.68870749 89.0918748,1.24124255 91.8973205,7.6422522 C94.6505008,13.9240112 84.1608482,19.8079852 77.994282,22.8103108 C58.5601426,32.2722403 37.0494139,4.47210272 34.4962697,26.6033408 C33.2174538,37.6884089 45.7473214,35.8826997 27.4543918,39.9642277 C23.5139283,40.8434261 19.3802524,40.8117799 15.3544639,40.5063792 C14.4544118,40.4381003 13.4962892,39.7302741 13.1878885,38.8819553 C9.47783973,28.6767134 29.6628293,31.3801985 31.6068256,31.8400775 C38.0258249,33.3585796 43.0227662,38.9964202 49.4836111,40.3256621 C63.3414535,43.176748 74.3844224,46.0478577 81.9883344,34.727491 C83.1360541,33.0188169 84.2754901,30.7186631 83.6127583,28.7699162 C81.9132985,23.7726951 68.0053438,24.5266648 70.2498408,30.7557745 C73.2900242,39.1931373 88.0339497,35.3243937 90.6566667,27.8663304 C91.8011377,24.6118665 88.9670667,15.5197794 91.7389391,17.5735741 C111.245647,32.0268991 85.4123666,33.6188208 82.3497687,37.436218 C80.1650862,40.1593311 84.2970718,45.0120728 82.3497687,47.9096914 C69.6755087,66.7691952 68.92138,53.5205552 52.2370097,58.5435767 C49.3830511,59.4027937 48.745593,63.6770556 46.0966872,65.043303 C45.0145567,65.6014421 45.5610476,61.9974637 46.6388387,61.4309902 L52.0562926,57.0978394 C54.7696673,55.6717237 57.6924084,54.4769795 60.7246249,54.0276781 C65.9078857,53.2596437 71.3354853,54.690808 76.434835,53.4855266 C81.2168371,52.3552535 84.8745774,46.5789252 89.7530809,47.1665174 C91.6681413,47.3971773 83.0762215,58.0906891 89.6170354,62.1761947 C95.0388501,65.5627542 102.181318,64.9766044 108.013637,67.5936486 C109.445437,68.2361177 110.413894,70.0012367 110.541646,71.5653652 C111.432291,82.4699222 88.1856206,55.6567742 120.089198,78.0001145 C123.247696,80.2121359 125.715781,90.8140644 127.088435,87.2105983 C142.34738,47.1530999 105.136939,42.0154708 90.815048,24.5931161 C88.1678008,21.3727815 98.9341838,26.6676199 102.732228,28.386146 C106.569672,30.1224994 110.228632,32.3197736 113.567136,34.8879029 C117.313045,37.7694267 121.024117,40.8578472 123.859892,44.6385077 C124.654286,45.6975945 125.10019,48.1472045 123.859892,48.6102242 C113.42857,52.5043761 85.5757671,45.9128425 95.6903504,30.3720043 C105.93322,14.6340573 114.992787,45.7444978 126.207185,39.7632053 C126.835197,39.4282498 125.02224,33.6345565 115.914429,28.7475804 C111.482233,26.3693982 106.181119,25.8547504 101.830673,23.3301265 C100.931837,22.8085196 100.271466,20.4734578 101.288521,20.2599652 C106.2367,19.2212806 111.407951,19.9866944 116.45658,20.2599652 L117.496211,15.5877158 C131.528435,16.3472482 134.578666,35.8349139 132.483227,47.1665152 C131.548646,52.2204923 133.932734,67.0841518 131.220563,62.7183462 C127.144725,56.1574314 129.467268,-10.7564897 128.150402,69.0150196" id="Path-34" fill="#A5A5A5"></path>
            </g>
        </g>
    </g>
</svg>