<svg xmlns="http://www.w3.org/2000/svg" xmlns:xlink="http://www.w3.org/1999/xlink" version="1.1" x="0px" y="0px" viewBox="0 0 100 125" enable-background="new 0 0 100 100" xml:space="preserve"><g><path fill-rule="evenodd" clip-rule="evenodd" d="M72.725,50.344L52.088,70.896c-0.375,0.373-0.875,0.572-1.386,0.572   c-0.254,0-0.51-0.05-0.753-0.15c-0.733-0.304-1.211-1.021-1.211-1.814v-27.09l-7.457,20.027c-0.297,0.802-1.086,1.325-1.933,1.276   c-0.854-0.039-1.583-0.628-1.805-1.453l-4.035-15.061l-0.372,1.387c-0.23,0.859-1.008,1.457-1.897,1.457H10.988   c10.964,16.644,34.029,35.535,38.797,39.546c8.039-7.087,29.223-23.629,39.412-39.25H72.725z"/><path fill-rule="evenodd" clip-rule="evenodd" d="M10.17,46.118h19.563l1.878-7.011c0.23-0.859,1.008-1.457,1.897-1.457   s1.667,0.598,1.897,1.457l4.34,16.199l9.116-24.482c0.332-0.89,1.259-1.416,2.188-1.248c0.936,0.169,1.617,0.982,1.617,1.934   v33.266l17.859-17.788c0.367-0.365,0.865-0.572,1.385-0.572h18.164c0.461,0,0.881,0.166,1.217,0.433   c2.207-4.055,3.535-7.992,3.535-11.622C94.826,21.52,84.381,10.406,70.676,10.406c-8.783,0-16.266,2.336-20.676,9.219   c-4.411-6.883-12.325-9.219-21.106-9.219c-13.707,0-23.721,11.113-23.721,24.819c0,3.39,1.403,7.278,3.711,11.384   C9.229,46.308,9.676,46.118,10.17,46.118z"/></g><text x="0" y="115" fill="#000000" font-size="5px" font-weight="bold" font-family="'Helvetica Neue', Helvetica, Arial-Unicode, Arial, Sans-serif">Created by Nikita Kozin</text><text x="0" y="120" fill="#000000" font-size="5px" font-weight="bold" font-family="'Helvetica Neue', Helvetica, Arial-Unicode, Arial, Sans-serif">from the Noun Project</text></svg>