<svg xmlns="http://www.w3.org/2000/svg" xmlns:xlink="http://www.w3.org/1999/xlink" version="1.1" x="0px" y="0px" viewBox="0 0 100 125" enable-background="new 0 0 100 100" xml:space="preserve"><path d="M81.249,18.741c-0.868-0.868-2.276-0.868-3.145,0c-0.867,0.868-0.867,2.276,0,3.144l0.005,0.003  c2.822,2.827,2.822,7.422-0.001,10.249c-0.001,0.001-0.004,0.002-0.004,0.002c-0.867,0.868-0.867,2.277,0,3.144  c0.868,0.868,2.276,0.868,3.144,0.001c0,0,0-0.001,0.001-0.001c4.559-4.559,4.56-11.975,0.003-16.536  C81.253,18.747,81.25,18.743,81.249,18.741z"/><path d="M88.55,11.44c-8.587-8.586-22.559-8.586-31.145,0.001L11.44,57.406c-8.586,8.586-8.586,22.557,0,31.144  C15.599,92.709,21.129,95,27.012,95c5.883-0.001,11.413-2.292,15.572-6.451l45.964-45.965C92.708,38.424,95,32.894,95,27.012  C95,21.13,92.709,15.599,88.55,11.44z M84.896,38.929L61.913,61.912L38.077,38.076L61.06,15.094  c6.572-6.571,17.265-6.571,23.837-0.001c3.183,3.184,4.936,7.417,4.936,11.919C89.832,31.513,88.079,35.746,84.896,38.929z"/><text x="0" y="115" fill="#000000" font-size="5px" font-weight="bold" font-family="'Helvetica Neue', Helvetica, Arial-Unicode, Arial, Sans-serif">Created by David Courey</text><text x="0" y="120" fill="#000000" font-size="5px" font-weight="bold" font-family="'Helvetica Neue', Helvetica, Arial-Unicode, Arial, Sans-serif">from the Noun Project</text></svg>