<svg xmlns="http://www.w3.org/2000/svg" xmlns:xlink="http://www.w3.org/1999/xlink" version="1.1" x="0px" y="0px" viewBox="0 0 100 125" style="enable-background:new 0 0 100 100;" xml:space="preserve"><path d="M66.9,50.7c-0.9-0.4-2,0-2.4,0.9c-0.7,1.5-2.2,2.5-3.9,2.5c-1.7,0-3.2-1-3.9-2.5c-0.4-0.9-1.5-1.3-2.4-0.9  c-0.9,0.4-1.3,1.5-0.9,2.4c1.2,2.9,4,4.7,7.2,4.7c3.1,0,5.9-1.8,7.2-4.7C68.3,52.1,67.8,51.1,66.9,50.7z"/><path d="M45.8,53.1c0.5-0.9,0.1-2-0.8-2.4c-0.9-0.5-2-0.1-2.4,0.8c-0.7,1.4-2.2,2.3-3.7,2.3s-3-0.9-3.7-2.3  c-0.5-0.9-1.5-1.2-2.4-0.8c-0.9,0.5-1.2,1.5-0.8,2.4c1.3,2.6,4,4.3,6.9,4.3S44.4,55.8,45.8,53.1z"/><circle cx="46.5" cy="76.2" r="4.5"/><path d="M73,18.6h4.6l-1.1,0.9l-3.5,3L72,23.4c-0.5,0.4-0.6,1.1-0.4,1.7c0.2,0.6,0.8,1,1.4,1h6.2h2.4c0.5,0,1-0.3,1.3-0.7  c0.1-0.2,0.2-0.5,0.2-0.8c0-0.8-0.7-1.5-1.5-1.5h-0.1H77l2.4-2l3.2-2.8c0.5-0.4,0.6-1.1,0.4-1.7c-0.2-0.6-0.8-1-1.4-1H73  c-0.8,0-1.5,0.7-1.5,1.5C71.5,17.9,72.1,18.6,73,18.6z"/><path d="M84.6,11.3h-1.4l2.2-1.9C85.7,9,85.9,8.5,85.7,8c-0.2-0.5-0.6-0.8-1.1-0.8h-4.7c-0.7,0-1.2,0.5-1.2,1.2  c0,0.7,0.5,1.2,1.2,1.2h1.4l-2.2,1.9c-0.4,0.3-0.5,0.9-0.3,1.3c0,0,0,0,0,0c0.2,0.4,0.6,0.7,1.1,0.7H84h0.6c0.7,0,1.2-0.5,1.2-1.2  C85.8,11.8,85.2,11.3,84.6,11.3z"/><path d="M85.4,58.1c0-0.3,0-0.5-0.1-0.7c-0.4-6.7-0.2-14.7,0-18.8c0.1-0.9,0.1-1.8,0.1-2.5c0-1.9-0.2-3.7-0.5-5.5  c-0.1-0.3-0.1-0.7-0.2-1c-0.2-0.5-0.7-0.9-1.2-1c-1-0.2-2,0.4-2.3,1.4c0,0.1,0,0.2,0,0.3c0.1,0.3,0.1,0.7,0.2,1  c0.3,1.6,0.4,3.2,0.4,4.8c0,0.7,0,1.4-0.1,2.3c-0.1,2.9-0.2,7.6-0.2,12.6c-0.9-0.7-1.8-1.2-2.9-1.5v-9.7c0-3.6-3-6.6-6.6-6.6  c-0.4,0-0.9,0-1.3,0.1l-0.2,0c-13.6,3-27.8,3-41.5,0c-0.4-0.1-0.9-0.1-1.3-0.1c-3.6,0-6.6,3-6.6,6.6v10c-0.9,0.3-1.8,0.7-2.6,1.2  c0-9.1-0.6-21.4-0.6-22c0-6.6,5.4-12,12-12c1.1,0,2.1,0.2,3.2,0.4l1,0.3l0.7-0.8C40,11.7,47,8.7,54.5,8.7c5.2,0,10.1,1.5,14.3,4  c0.3,0.2,0.6,0.4,0.9,0.6c0,0,0.1,0,0.1,0c1,0.2,2-0.4,2.3-1.4c0.2-0.6,0-1.2-0.4-1.7c-0.3-0.2-0.6-0.4-0.9-0.6  C66,6.8,60.4,5.1,54.5,5.1c-8.1,0-15.7,3.1-21.5,8.7c-1-0.2-2.1-0.3-3.1-0.3c-8.6,0-15.6,7-15.6,15.7c0,0.2,0.9,18.9,0.5,27.1  c-0.2,0.8-0.3,1.6-0.3,2.5c0,4.2,2.8,7.8,6.7,8.9c0.8,15.2,13.4,27.3,28.8,27.3c15.5,0,28.1-12.3,28.8-27.6c4-1.1,6.8-4.7,6.8-9  L85.4,58.1L85.4,58.1z M21,63.6L21,63.6c-1.8-0.9-3-2.8-3-4.9c0-0.6,0.1-1.2,0.3-1.8c0.5-1.4,1.4-2.5,2.7-3.2V63.6z M75,49.1v1.8  v1.8V64V64v1.8v0v0.3c0,0.5,0,1-0.1,1.5c0,0,0,0,0,0c-0.8,13.2-11.7,23.7-25.1,23.7C36.6,91.3,25.7,81,24.7,68c0,0,0,0,0,0  c0-0.6-0.1-1.2-0.1-1.8c0,0,0,0,0,0c0,0,0,0,0,0l0-1.8v0l0-11.2l0-1.8v-1.8l0-9.7c0-1.7,1.3-3,3-3c0.2,0,0.4,0,0.6,0.1  c14.2,3.1,29,3.1,43.2,0l0.1,0c1.8-0.3,3.5,1.1,3.5,3V49.1z M78.6,63.4v-10c1.8,1,3,2.8,3,5C81.7,60.6,80.4,62.4,78.6,63.4z"/><text x="0" y="115" fill="#000000" font-size="5px" font-weight="bold" font-family="'Helvetica Neue', Helvetica, Arial-Unicode, Arial, Sans-serif">Created by Musavvir Ahmed</text><text x="0" y="120" fill="#000000" font-size="5px" font-weight="bold" font-family="'Helvetica Neue', Helvetica, Arial-Unicode, Arial, Sans-serif">from the Noun Project</text></svg>