<?xml version="1.0" encoding="UTF-8" standalone="no"?>
<svg width="395px" height="371px" viewBox="0 0 395 371" version="1.1" xmlns="http://www.w3.org/2000/svg" xmlns:xlink="http://www.w3.org/1999/xlink">
    <!-- Generator: Sketch 3.7.1 (28215) - http://www.bohemiancoding.com/sketch -->
    <title>Artboard 1</title>
    <desc>Created with Sketch.</desc>
    <defs></defs>
    <g id="Page-1" stroke="none" stroke-width="1" fill="none" fill-rule="evenodd">
        <g id="Artboard-1">
            <g id="Grandma" transform="translate(12.000000, 4.000000)">
                <path d="M193.179612,358.657234 C277.515638,358.657234 345.883495,325.709734 345.883495,241.280612 C345.883495,156.85149 277.515638,58.9387755 193.179612,58.9387755 C108.843586,58.9387755 40.4757282,156.85149 40.4757282,241.280612 C40.4757282,325.709734 108.843586,358.657234 193.179612,358.657234 Z" id="Oval-7" fill="#EBBE74"></path>
                <path d="M126.546959,36.7980811 C106.991208,26.9688865 82.1715026,18.3571668 72.1094498,45.6406085 C70.2955689,50.55898 75.4826346,57.3587305 72.1094498,61.3692541 C68.6774009,65.4497637 61.1272389,61.8624343 56.3981475,64.3204476 C43.8308311,70.8524911 31.892972,78.7900752 21.0504775,87.9078894 C13.0601045,94.6272598 28.3462594,102.272935 26.9408357,106.587729 C22.7619601,119.417302 10.7917304,128.384468 4.85337238,140.498821 C1.98330949,146.353799 -1.76155182,153.722387 0.922786555,159.664999 C2.75448493,163.720029 11.4619132,157.617069 14.1774727,161.140596 C40.0458119,194.705611 41.0320479,247.01058 41.0320479,247.01058 C41.0320479,247.01058 84.5851521,190.528834 95.1850801,183.628248 C138.69568,155.302715 115.605373,177.352585 119.608097,177.983381 C124.990131,178.831547 148.019113,164.825937 150.323009,164.173836 C155.852938,162.608628 167.535643,155.659671 173.184023,156.719332 C183.363792,158.629102 193.919631,161.487762 204.115304,159.664999 C208.898282,158.809907 221.934,145.048594 224.734318,149.346875 C229.478649,156.629072 235.026495,163.928255 242.405393,168.513053 C248.574882,172.346398 288.556402,189.94405 289.78483,189.94405 C291.013257,189.94405 282.209636,197.399183 291.01327,203.407877 C296.662744,207.263781 303.377248,209.902481 310.158314,210.780334 C322.655685,212.398199 333.455682,248.238199 345.997304,247.01058 C348.846077,246.731733 353.494694,208.560591 355.326928,206.35907 C370.207386,188.479458 357.166028,176.68054 361.539054,175.885515 C367.198441,174.856629 371.105838,173.658293 375.319827,168.513054 C380.505752,162.181088 360.547895,148.255985 361.539054,134.187387 C362.283727,123.617414 369.438243,115.19931 369.374932,109.157872 C369.344313,106.236099 369.159301,102.917643 368.739212,99.4477667 C367.419933,88.5507114 363.782186,76.1602648 355.32693,69.8730089 C348.960045,65.1386483 331.61891,37.6568022 323.904324,35.81435 C317.04296,34.1756704 309.645527,36.0181163 302.793986,34.3387532 C301.074804,33.9173691 289.363999,24.6074269 283.648942,24.0151025 C274.844059,23.1025399 265.676864,23.1692578 257.134049,25.4906992 C252.227062,26.8241334 256.931634,37.6751619 244.862009,21.6165669 C242.733356,18.7844012 228.473212,10.9993014 224.242995,9.82284602 C219.488953,8.50071106 214.445671,8.51193181 209.514339,8.34724926 C199.700694,8.01952116 189.664311,6.31648571 180.057027,8.34724926 C174.37077,9.54919614 169.293638,13.4337519 165.328372,17.6871688 C146.568318,37.8104918 179.48466,29.1220092 137.405755,31.9402176 L126.546959,36.7980811 Z" id="Path-21" fill="#9B9B9B"></path>
                <path d="M126.484096,244.81844 C126.484096,244.81844 135.422717,196.777904 166.959824,233.60494" id="Path-21" stroke="#000000" stroke-width="2" transform="translate(146.721960, 232.265352) rotate(7.000000) translate(-146.721960, -232.265352) "></path>
                <path d="M226.758332,239.311383 C226.758332,239.311383 235.696953,191.270848 267.23406,228.097883" id="Path-21" stroke="#000000" stroke-width="2" transform="translate(246.996196, 226.758295) rotate(13.000000) translate(-246.996196, -226.758295) "></path>
                <path d="M271.355728,284.147002 C271.355728,284.147002 209.950751,356.194825 128.352509,289.312149" id="Path-23" stroke="#000000" stroke-width="2"></path>
                <path d="M130.771167,272.735596 C130.771167,272.735596 135.097432,297.826786 114.042378,297.826786" id="Path-24" stroke="#000000" stroke-width="2"></path>
                <path d="M130.221605,121.697387 C139.972514,101.684583 151.926341,82.6042522 159.474331,61.6589773 C173.772181,21.9831947 110.781027,35.7147557 77.2041289,58.7277274 C43.6272304,81.740699 37.4201896,97.3208001 55.9004551,130.133671 C81.7055459,175.952229 156.707337,129.006437 137.978384,108.124537 C99.7389299,65.489347 16.2247802,118.747292 25.1260384,169.257354 C32.4106309,210.59367 143.078834,148.965169 131.139015,100.298701 C120.159782,55.5475651 4.21290339,175.211203 127.716583,144.806427 C143.629054,140.889012 157.689188,131.327234 171.686314,122.797293 C180.29029,117.553973 188.996585,111.71221 195.137936,103.719411 C199.188918,98.4471685 204.861482,90.0595271 200.999468,84.6470281 C188.990023,67.8161467 129.219176,114.342903 186.342891,115.460915 C203.987006,115.806242 222.029112,115.526632 239.102173,111.055789 C254.322209,107.070189 268.471893,99.1858362 281.605147,90.5150306 C291.702982,83.8482616 300.482273,75.0689922 307.990281,65.5746453 C310.134865,62.8626845 312.14948,57.4623487 309.451544,55.3015164 C263.043306,18.1322016 178.486275,58.7768406 202.466224,122.797293 C215.407996,157.348579 273.087661,132.226002 279.654965,106.656162 C293.033085,54.5683728 167.057121,-11.2682934 149.701448,58.2382674 C147.210461,68.2142565 146.598964,78.9004272 148.234692,89.0521546 C160.546389,165.461544 279.642352,103.213166 238.618747,56.2804334 C231.47496,48.1076395 222.515833,40.6697544 212.233613,37.2080506 C105.607757,1.31044226 226.394871,202.810926 257.181181,98.8303255 C259.683927,90.3773142 261.962485,80.5898254 258.647938,72.4215648 C236.130692,16.9308137 153.143521,64.7649159 224.451089,109.592913 C238.326954,118.316071 252.650882,127.130836 268.415326,131.602047 C282.548116,135.610477 298.245748,138.518618 312.385057,134.533298 C318.236574,132.883984 318.078868,123.468873 318.735508,117.418749 C320.120023,104.662159 313.495637,51.4665812 286.494335,64.5957283 C253.089422,80.8385756 302.539636,200.053946 348.537581,182.951193 C354.667972,180.671818 354.390451,170.896065 354.888031,164.368268 C356.041019,149.242132 356.629702,133.707804 353.421275,118.881625 C312.731408,-69.1467503 268.564197,147.561984 331.925329,212.786163 C334.037793,214.960741 337.07247,208.4743 337.303435,205.449785 C341.694499,147.948213 340.0154,135.264539 315.807489,82.6891942 C314.706302,80.2976102 310.458932,78.0238813 308.4792,79.7579427 C279.283107,105.331013 306.805493,194.155598 329.975147,216.212372 C331.780185,217.930712 336.894004,220.134932 337.303435,217.675248 C341.039448,195.230924 346.149258,123.842275 334.858841,96.3885326 C332.63694,90.9857641 328.9075,106.74945 328.019472,112.524164 C324.639508,134.503542 343.605609,173.190555 322.15794,178.980529 C294.807402,186.364031 275.086086,147.299277 250.341812,133.493886 C247.513846,131.916101 242.014203,130.564308 240.629357,133.493886 C231.752417,152.272652 258.609917,187.388765 279.715393,175.559819 C356.658185,132.435841 242.16266,174.595681 273.848368,150.67443 C278.530001,147.140012 286.638938,152.662875 291.378029,149.206054 C320.447542,128.001969 295.581112,107.039971 310.918301,76.3317332 C314.224549,69.7119366 337.83254,78.9163436 332.903166,73.4004818 L335.836679,63.6168113 C284.344628,5.99832949 136.787891,40.5139231 175.103252,117.902708 C198.54005,165.239998 282.535566,100.705647 125.332417,153.550686 C108.619649,159.16881 245.014668,149.29622 193.242689,129.094259 C160.314596,116.245378 122.560315,126.766038 87.2297122,127.625884 C82.1302645,127.74999 77.0191414,129.527697 72.5731353,132.03101 C68.9605777,134.065052 65.5131486,137.062022 63.7780905,140.830264 C55.7750063,158.211562 46.3207113,175.667194 43.7489004,194.632202 C30.0689768,295.51048 115.972198,-0.313705891 40.7549594,225.446089 C37.2716261,235.901095 50.3206706,205.442728 56.8782927,196.590036 C71.8937056,176.319454 92.3676365,160.084581 105.242799,138.388471 C109.488442,131.234081 108.740132,121.372828 106.220637,113.442587 C94.8989406,77.8069586 79.4451251,156.094884 105.731718,133.493886 C117.310202,123.5388 126.269188,110.78151 135.044872,98.2803721 C139.066567,92.5513855 148.024559,84.8187951 143.839916,79.2079893 C139.457852,73.3324778 128.844906,78.3007569 121.915479,80.6763648 C109.92602,84.7866978 98.7521165,105.317843 88.2075498,98.2803721 C78.4147713,91.7446465 98.9924447,75.6576597 96.9971012,64.045775 C96.1794769,59.2876176 86.7250133,64.1362902 82.8294431,66.982526 C74.1743197,73.3062528 71.5595481,90.4158093 60.8445777,90.4600352 C55.797463,90.4808672 81.6993023,64.0457724 41.540526,83.2996424 C30.5751973,88.5568996 32.0538182,93.2709841 29.5812423,103.719411 C27.4292515,112.813133 25.722594,138.018936 32.5092616,131.602047 L40.8153876,137.470049 C58.0915736,121.135173 106.264588,54.0707353 83.5545835,52.7992276 C60.8445786,51.5277199 90.4663058,33.9922717 96.1970795,28.0348286 C97.4215651,26.7619109 109.177537,29.5543228 117.679562,33.4677443 C124.848476,36.767544 128.930488,41.3044575 130.221605,40.4420997 C134.658449,37.4786621 72.5340885,41.8641387 76.2511487,40.4420997 C115.287607,25.5078872 145.404357,85.3850902 174.185842,49.3730191 C176.343262,46.6736047 175.813492,40.651068 172.72458,39.1053897 C156.406195,30.9397427 122.321419,67.5997535 133.638543,80.1869063 C157.881329,107.150262 210.07115,62.1714805 219.133411,48.8835606 C227.060143,37.2606562 239.555541,20.8491814 232.323231,8.78096099 C221.148213,-9.86627317 175.281805,9.1786307 165.987028,18.2511582 C163.678682,20.5043084 161.188031,31.4288907 164.286606,32.3202604 C244.743192,55.4652756 192.385874,17.5612143 272.326677,28.7717659 C281.454307,30.0517852 288.855647,37.3467077 295.772805,43.4445218 C304.005522,50.7020653 307.796467,62.8517314 317.268752,68.3904066 C327.199185,74.1969729 339.48339,75.9096368 350.982175,75.7267845 C353.764992,75.6825325 350.591953,66.7693487 348.048662,67.9009481 C345.038464,69.2402908 345.51264,74.5654368 346.581905,77.6846185 C351.359188,91.620553 359.077466,80.0351124 361.921239,94.4911908 C364.872201,109.492156 361.680532,113.674853 360.605195,134.104332 C360.407824,137.85402 365.59174,169.302 365.149833,172.073115 C362.38954,189.382368 365.861859,219.419174 348.537581,221.959385 C328.743932,224.861673 316.749399,164.960391 304.688706,180.938363 L298.827174,179.959446 C291.617114,189.511314 316.081637,204.920093 313.967176,206.307712 C306.092623,211.475403 279.170122,200.141062 287.647964,196.040083 L313.967176,200.43971 C319.253039,197.882784 319.115569,186.971882 314.945014,182.835703 C300.118413,168.131308 280.561776,158.990011 262.185732,149.085064 C256.742334,146.150996 244.986868,138.550996 244.167152,144.685437 C243.08047,152.817745 264.853996,170.083512 260.290485,163.268362 L270.546793,164.857727 C257.665678,145.62106 228.306273,129.963489 208.992466,120.839459 C206.930704,119.865463 201.128423,118.800673 202.153096,120.839459 C229.657209,175.564226 150.176634,138.065788 115.680391,149.695513 C100.303259,154.879608 97.5587572,177.095571 85.3948934,187.845778 C76.2744045,195.906303 62.209036,196.832625 53.1482268,204.960327 C48.8138448,208.848342 44.9102064,226.662044 47.7756136,221.590916 C65.411683,190.379033 86.564485,160.391486 97.6068763,126.278498 C99.7515167,119.653113 83.2253507,127.189546 77.2041302,130.678125 C70.0284553,134.835573 64.2024283,141.37105 59.619534,148.287632 C53.1374702,158.070473 51.5980865,170.750251 44.4740383,180.074937 C42.3748405,182.822582 37.3780825,182.929388 34.2122371,181.543312 C28.8229055,179.183746 24.4412671,174.599201 21.0224166,169.807307 C18.5383967,166.325681 17.5818416,161.83493 17.1165597,157.581844 C16.2655126,149.802523 15.3200195,141.7207 17.1165597,134.104335 C18.2171915,129.438247 20.7903225,121.151676 25.4226858,122.36833 L38.1235875,155.074056 C47.8493378,157.628448 54.5999947,120.147289 55.2192649,130.194166 C57.3689545,165.070168 24.5182903,204.668548 43.007282,234.305838 C55.5936147,254.481346 68.4317154,193.961765 83.5545811,175.614815 C93.1625087,163.958547 108.206332,157.245491 116.779085,144.806427 C123.184612,135.512008 124.985696,123.628087 127.035393,112.524164 C127.813741,108.307579 128.460544,102.449076 125.085211,99.8092425 C50.4370797,41.4272443 60.5068946,151.110681 98.2111579,104.698328 C107.706648,93.009781 117.275093,81.1850404 124.596292,68.0219378 C126.339618,64.8875371 126.00841,60.5566045 124.596292,57.2593504 C120.037401,46.6144686 96.6325245,55.4319044 83.5545835,59.9359409 C71.6021351,64.0523583 64.5649241,64.0513327 164.165754,52.7992286 C170.17463,52.1203938 183.290502,46.1761702 178.822331,42.097136 C166.402661,30.7591053 126.789149,52.7126738 122.151698,58.7277259 C118.593796,63.3425393 133.920532,59.9180205 139.620932,58.7277259 C169.197937,52.5517819 198.714422,45.7332149 227.5549,36.7185921 C231.83027,35.3822462 242.216536,28.8736874 237.816701,28.0348284 C217.014935,24.0688273 192.338299,22.6185578 180.228659,21.187909 C176.228244,20.7152947 187.923651,18.2799848 191.951723,18.251158 C210.859018,18.1158482 241.032401,3.36180968 248.622356,20.6984505 C256.07091,37.7121101 227.691822,53.6483998 211.008569,61.7799671 C158.430741,87.4068729 100.234833,12.1123452 93.3274635,72.053096 C89.8677086,102.076148 123.766468,97.1855237 74.2761109,108.240028 C63.6154374,110.621268 52.4320403,110.535557 41.5405256,109.708403 C39.1054918,109.523475 36.5133521,107.606382 35.6789935,105.308776 C25.6416926,77.6686658 80.2508981,84.9908468 85.5102562,86.2363934 C102.876451,90.3491393 116.395358,105.618796 133.874763,109.218945 C171.366274,116.940891 201.242324,124.71707 221.814224,94.0567303 C224.919307,89.4289181 228.001978,83.1991291 226.209,77.9210984 C221.611219,64.3865105 183.984132,66.4285794 190.056476,83.2996424 C198.281499,106.151589 238.170252,95.6733951 245.265846,75.473806 C248.362139,66.6593415 240.69474,42.0341252 248.193865,47.5966697 C300.968022,86.7423853 231.077725,91.0539826 222.792061,101.393108 C216.881542,108.76845 228.060366,121.911727 222.792061,129.759703 C188.502657,180.839214 186.46241,144.956295 141.323907,158.560761 C133.602704,160.887884 131.878101,172.464393 124.711655,176.164768 C121.78402,177.676445 123.262516,167.915347 126.178412,166.381098 L140.834989,154.645093 C148.175851,150.782569 156.083142,147.546696 164.28661,146.329798 C178.309593,144.249636 192.993618,148.125834 206.789585,144.861422 C219.726987,141.800165 229.622771,126.155425 242.821252,127.746874 C248.002326,128.371598 224.757433,157.33415 242.453189,168.399427 C257.121564,177.571662 276.445057,175.98412 292.224024,183.072182 C296.097668,184.81226 298.717768,189.592949 299.063393,193.82927 C301.472975,223.363422 238.580588,150.742079 324.893687,211.257293 C333.438803,217.248382 340.116049,245.962887 343.829677,236.203177 C385.111783,127.710533 284.441301,113.795661 245.694336,66.6085577 C238.532377,57.8865297 267.660142,72.2271912 277.935509,76.8816866 C288.317469,81.5844656 298.216553,87.5356134 307.248663,94.4911934 C317.382982,102.295578 327.423051,110.660327 335.09506,120.899954 C337.244241,123.768409 338.450607,130.402989 335.09506,131.657042 C306.873781,142.204052 231.519795,124.351392 258.884157,82.2602305 C286.595589,39.6352153 311.105671,123.895443 341.445511,107.695574 C343.144558,106.788373 338.239718,91.0966013 313.599114,77.8606036 C301.60809,71.4194807 287.266265,70.0255967 275.496409,63.1878477 C273.064665,61.7751157 271.278075,55.450781 274.029652,54.8725528 C287.416634,52.0593556 301.407125,54.1324199 315.06587,54.8725528 L317.878527,42.2181258 C355.841815,44.2752606 364.094021,97.0560997 358.424945,127.746868 C355.896496,141.435175 362.346492,181.69225 355.008888,169.867802 C343.981966,152.09807 350.265459,-29.1331225 346.702762,186.921856" id="Path-34" fill="#A5A5A5"></path>
            </g>
        </g>
    </g>
</svg>